<mxfile host="app.diagrams.net" modified="2023-08-16T00:18:57.231Z" agent="Mozilla/5.0 (X11; Linux x86_64) AppleWebKit/537.36 (KHTML, like Gecko) Chrome/106.0.0.0 Safari/537.36" etag="ekbSHVmy2UzWVjOI-1b4" version="21.6.8" type="github">
  <diagram name="Page-1" id="ngUo1pnVJim3qT83173W">
    <mxGraphModel dx="1114" dy="629" grid="1" gridSize="10" guides="1" tooltips="1" connect="1" arrows="1" fold="1" page="1" pageScale="1" pageWidth="827" pageHeight="1169" math="0" shadow="0">
      <root>
        <mxCell id="0" />
        <mxCell id="1" parent="0" />
        <mxCell id="qOJFp8rp0lBa6UFPM5Xz-1" value="&lt;b&gt;sd&lt;/b&gt;&amp;nbsp;Impression rapport" style="shape=umlFrame;whiteSpace=wrap;html=1;pointerEvents=0;width=206;height=20;rounded=0;" vertex="1" parent="1">
          <mxGeometry x="24" y="110" width="796" height="770" as="geometry" />
        </mxCell>
        <mxCell id="qOJFp8rp0lBa6UFPM5Xz-2" value="Utilisateur" style="shape=umlLifeline;perimeter=lifelinePerimeter;whiteSpace=wrap;html=1;container=1;dropTarget=0;collapsible=0;recursiveResize=0;outlineConnect=0;portConstraint=eastwest;newEdgeStyle={&quot;edgeStyle&quot;:&quot;elbowEdgeStyle&quot;,&quot;elbow&quot;:&quot;vertical&quot;,&quot;curved&quot;:0,&quot;rounded&quot;:0};rounded=0;" vertex="1" parent="1">
          <mxGeometry x="160" y="160" width="100" height="690" as="geometry" />
        </mxCell>
        <mxCell id="qOJFp8rp0lBa6UFPM5Xz-3" value="Systeme" style="shape=umlLifeline;perimeter=lifelinePerimeter;whiteSpace=wrap;html=1;container=1;dropTarget=0;collapsible=0;recursiveResize=0;outlineConnect=0;portConstraint=eastwest;newEdgeStyle={&quot;edgeStyle&quot;:&quot;elbowEdgeStyle&quot;,&quot;elbow&quot;:&quot;vertical&quot;,&quot;curved&quot;:0,&quot;rounded&quot;:0};rounded=0;" vertex="1" parent="1">
          <mxGeometry x="480" y="160" width="100" height="690" as="geometry" />
        </mxCell>
        <mxCell id="qOJFp8rp0lBa6UFPM5Xz-6" value="Ref" style="shape=umlFrame;whiteSpace=wrap;html=1;pointerEvents=0;" vertex="1" parent="1">
          <mxGeometry x="76" y="230" width="676" height="60" as="geometry" />
        </mxCell>
        <mxCell id="qOJFp8rp0lBa6UFPM5Xz-7" value="(S&#39;authentifier)" style="text;html=1;align=center;verticalAlign=middle;resizable=0;points=[];autosize=1;strokeColor=none;fillColor=none;" vertex="1" parent="1">
          <mxGeometry x="340" y="245" width="100" height="30" as="geometry" />
        </mxCell>
        <mxCell id="qOJFp8rp0lBa6UFPM5Xz-16" value="Ref" style="shape=umlFrame;whiteSpace=wrap;html=1;pointerEvents=0;" vertex="1" parent="1">
          <mxGeometry x="76" y="310" width="676" height="60" as="geometry" />
        </mxCell>
        <mxCell id="qOJFp8rp0lBa6UFPM5Xz-17" value="(Consultation log et pointage)" style="text;html=1;align=center;verticalAlign=middle;resizable=0;points=[];autosize=1;strokeColor=none;fillColor=none;" vertex="1" parent="1">
          <mxGeometry x="295" y="325" width="180" height="30" as="geometry" />
        </mxCell>
      </root>
    </mxGraphModel>
  </diagram>
</mxfile>
